<?xml version="1.0" encoding="UTF-8"?>
<!-- Created with Inkscape (http://www.inkscape.org/) -->
<svg width="512" height="512" version="1.1" viewBox="0 0 10.24 10.24" xmlns="http://www.w3.org/2000/svg" xmlns:xlink="http://www.w3.org/1999/xlink">
 <defs>
  <linearGradient id="linearGradient1339" x1="-.13229" x2="10.132" y1="7.276" y2="12.832" gradientUnits="userSpaceOnUse">
   <stop stop-color="#000c97" offset="0"/>
   <stop stop-color="#0cf" offset="1"/>
  </linearGradient>
 </defs>
 <g transform="translate(-3.6218 -7.2938)">
  <g transform="matrix(1.1096 0 0 1.1096 3.7686 1.2572)">
   <path d="m2.1169 7.4083c-0.76284 4.112e-4 -1.4175 0.54335-1.5591 1.2929l-5.1676e-4 -5.168e-4 -0.53743 2.7373 5.1676e-4 5.16e-4c-0.013245 0.066889-0.019994 0.1349-0.020154 0.20309 1.6569e-7 0.5845 0.47332 1.0583 1.0578 1.0583 0.38749-1.61e-4 0.74443-0.21207 0.92966-0.55242h5.167e-4l1.0444-1.6361c0.36531 0 0.66146-0.29614 0.66146-0.66146h1.5756c0 0.36531 0.29614 0.66146 0.66146 0.66146l1.0449 1.6361c0.18523 0.34035 0.54217 0.55226 0.92966 0.55242 0.5845 0 1.0578-0.47384 1.0578-1.0583-1.598e-4 -0.06819-0.00691-0.1362-0.020154-0.20309l5.17e-4 -5.16e-4 -0.53743-2.7373-5.168e-4 5.168e-4c-0.14154-0.74959-0.79624-1.2925-1.5591-1.2929-0.40949 6.96e-5 -0.8026 0.15837-1.0981 0.44183h-2.5337c-0.29552-0.28346-0.68863-0.44176-1.0981-0.44183z" fill="url(#linearGradient1339)" style="paint-order:normal"/>
   <path d="m3.6939 9.8501h1.5757m0.66146 0.66146 1.045 1.636c0.18523 0.34035 0.54165 0.55226 0.92914 0.55242 0.5845 0 1.0583-0.47383 1.0583-1.0583-1.598e-4 -0.06819-0.00691-0.1362-0.020154-0.20309l5.168e-4 -5.16e-4 -0.53743-2.7373-5.168e-4 5.168e-4c-0.14154-0.74959-0.79624-1.2925-1.5591-1.2929-0.40949 6.96e-5 -0.80312 0.15837-1.0986 0.44183h-2.533c-0.29552-0.28346-0.68915-0.44176-1.0986-0.44183-0.76284 4.112e-4 -1.4175 0.54335-1.5591 1.2929l-5.1676e-4 -5.168e-4 -0.53743 2.7373 5.1677e-4 5.16e-4c-0.013245 0.066889-0.019994 0.1349-0.020154 0.20309 1.6569e-7 0.5845 0.47383 1.0583 1.0583 1.0583 0.38749-1.61e-4 0.74391-0.21207 0.92914-0.55242h5.168e-4l1.0445-1.636" fill="none" stroke="#000" stroke-linejoin="round" stroke-width=".26458" style="paint-order:normal"/>
   <circle cx="3.0325" cy="9.8501" r=".66146" fill="none" stroke="#000" stroke-linecap="round" stroke-linejoin="bevel" stroke-width=".19844" style="paint-order:normal"/>
   <circle cx="3.0325" cy="9.8501" r=".39687" style="paint-order:normal"/>
   <circle transform="scale(-1,1)" cx="-5.9312" cy="9.8501" r=".66146" fill="none" stroke="#000" stroke-linecap="round" stroke-linejoin="bevel" stroke-width=".19844" style="paint-order:normal"/>
   <circle transform="scale(-1,1)" cx="-5.9312" cy="9.8501" r=".39687" style="paint-order:normal"/>
  </g>
 </g>
</svg>
