<?xml version="1.0" standalone="no"?>
<!DOCTYPE svg PUBLIC "-//W3C//DTD SVG 20010904//EN"
 "http://www.w3.org/TR/2001/REC-SVG-20010904/DTD/svg10.dtd">
<svg version="1.0" xmlns="http://www.w3.org/2000/svg"
 width="512.000000pt" height="512.000000pt" viewBox="0 0 512.000000 512.000000"
 preserveAspectRatio="xMidYMid meet">
<metadata>
Created by potrace 1.14, written by Peter Selinger 2001-2017
</metadata>
<g transform="translate(0.000000,512.000000) scale(0.100000,-0.100000)"
fill="#000000" stroke="none">
<path d="M1085 4088 c-233 -52 -392 -139 -534 -292 -20 -21 -41 -44 -46 -50
-65 -68 -168 -282 -189 -392 -2 -10 -25 -125 -50 -254 -25 -129 -48 -248 -52
-265 -3 -16 -9 -50 -14 -75 -5 -25 -13 -65 -18 -90 -6 -25 -13 -62 -16 -82 -3
-21 -14 -79 -25 -130 -28 -133 -31 -150 -36 -178 -2 -14 -6 -38 -10 -55 -87
-436 -94 -482 -91 -570 4 -121 19 -173 82 -297 30 -60 45 -79 116 -149 224
-223 581 -251 840 -66 107 76 115 86 404 540 65 103 126 198 134 212 34 55
212 331 223 346 7 9 28 19 48 23 132 24 263 146 306 283 l17 53 386 0 386 0
17 -52 c21 -67 51 -115 104 -171 48 -50 142 -103 199 -113 30 -4 45 -14 61
-37 39 -58 455 -710 527 -827 79 -128 178 -235 267 -287 274 -162 642 -102
839 138 53 64 61 77 95 147 70 146 78 296 30 527 -14 72 -28 141 -31 155 -3
14 -13 68 -24 120 -11 52 -22 109 -25 125 -2 17 -7 41 -10 55 -36 183 -136
693 -140 720 -3 19 -8 42 -10 50 -2 8 -6 26 -9 40 -3 14 -10 52 -16 85 -55
290 -180 493 -398 650 -160 114 -339 172 -542 173 -232 2 -429 -68 -623 -220
l-27 -22 -671 -1 -670 0 -53 42 c-115 91 -274 162 -423 188 -93 16 -260 18
-328 3z"/>
</g>
</svg>
